<svg xmlns="http://www.w3.org/2000/svg" viewBox="0 0 240 160" role="img" aria-label="サラダバーのイラスト">
  <path d="M48 96h144a8 8 0 0 1-8 8H56a8 8 0 0 1-8-8z" fill="none" stroke="#ece7de" stroke-width="5" stroke-linejoin="round"/>
  <path d="M64 96c0-22 24-36 56-36s56 14 56 36" fill="none" stroke="#ece7de" stroke-width="5" stroke-linecap="round"/>
  <g stroke="#9a9084" stroke-width="5" stroke-linecap="round" fill="none">
    <path d="M92 78c-4-10 2-20 10-24"/>
    <path d="M120 72c0-10 6-18 14-22"/>
    <path d="M146 76c4-8 12-14 20-14"/>
  </g>
  <g fill="#c4543a">
    <circle cx="104" cy="66" r="7"/>
    <circle cx="138" cy="60" r="7"/>
    <circle cx="160" cy="72" r="6"/>
  </g>
  <g fill="#9a9084">
    <circle cx="84" cy="56" r="4"/>
    <circle cx="176" cy="56" r="4"/>
  </g>
</svg>
